<?xml version="1.0" encoding="UTF-8"?>
<svg id="Layer_1" data-name="Layer 1" xmlns="http://www.w3.org/2000/svg" viewBox="0 0 163.08 100.32">
  <defs>
    <style>
      .cls-1 {
        fill: #fff;
      }
    </style>
  </defs>
  <path class="cls-1" d="M162.99,14.06c-.04.86-.08,1.67-.08,2.46l-.03,10.51v.06l-.04,4.17-.07,6.02-5.96.83-2.4.34c-1.27.18-2.79.26-4.91.26-.88,0-1.79-.01-2.72-.03h-.36l.42,13.31.2,6.36c3.76.37,7.52,1.96,10.27,4.4,5.53,4.91,6.99,12.97,3.63,20.05-3.8,8-11.09,8.3-13.88,8.31-.12,2.08-.98,4.08-2.41,5.59-1.59,1.69-3.74,2.63-6.05,2.63l-8.76.03c-.88,0-1.74-.12-2.55-.35-.81.24-1.63.37-2.4.37l-5.5.04h-.1c-1.4,0-2.94-.2-4.56-.6l-2.03-.49-.18.72-5.37.16-1.06.03c-1.47.04-2.85.08-4.31.08-1.68,0-3.19-.05-4.66-.18-1.01.37-2.01.53-2.85.53l-10.91.02h-3.73l-.82-1.21c-1.49.82-3.11,1.14-4.32,1.14h-.14l-8.04-.14c-.92-.01-1.84-.18-2.7-.48v.38s-7.2.04-7.2.04l-11.05.06-7.36.04.07-1.53c-2.4,1.39-5.3,2.2-8.44,2.29-.86.03-1.72.04-2.57.04-4.48,0-8.86-.35-13.79-1.11-5.42-.84-9.7-3.87-11.76-8.31-1.69-3.64-1.97-7.81-.82-12.06l1.36-5.06h.65c-.34-3.72.61-7.34,1.33-8.91.09-.18.18-.36.27-.53l-.55-.42c-3.3-2.52-3.25-6.44-3.23-7.93l.38-27.79.09-17.84c.03-4.97,4.24-8.92,9.59-9l45.68-.66,6.7-.09.08,1.31c1.35-.73,2.91-1.13,4.59-1.13h.01l24.78.03c.25,0,.5,0,.74-.01.31,0,.62,0,.92,0,1.25,0,2.94.08,4.85.71l.45.15.03-1.66,6.89.04,27.63.17,21.86.06h5.81s1.05,5.73,1.05,5.73c.56,3.06.44,5.72.34,8.06Z"/>
  <g>
    <path d="M125.97,90.86l-3.48-15.95-2.52-10.57-16.13.2c-.69,0-1.26.55-1.41,1.27l-5.57,26.28c1.72.18,3.33.23,4.92.23,1.69,0,3.37-.06,5.17-.11l2.5-10.51,3.79-.07,3.13,10.39c1,.24,2.02.4,2.92.4h.05l5.51-.04c.28,0,.94-.24,1.06-.49.1-.21.11-.77.06-1.03ZM109.93,76.41l1.11-3.19c.77,1.07,1.1,1.72,1.7,3.04l-2.81.15ZM152.66,67.99c-1.83-1.63-4.55-2.68-7.11-2.72l-15.65-.28h-.06c-1.36,0-2.31.92-2.3,2.26l.06,22.92c.01,1.25,1.14,2.19,2.24,2.19h.01l8.73-.03c.98,0,1.54-1.01,1.49-1.86l-.27-5.26c1.25-.98,2.89-1.13,4.64-1.13.76,0,1.54.03,2.32.03,2.99,0,6-.41,7.85-4.31,1.88-3.96,1.46-8.79-1.95-11.81ZM141.62,76.21c-.63,0-1.18-.04-1.53-.1l.1-2.95c1.69.13,4.84-.11,5.42,1.42.47,1.25-2.1,1.63-3.99,1.63Z"/>
    <path d="M94.88,91.18l-9.56-11.42c2.76-.89,4.73-2.09,5.76-4.14,1.09-2.17,1.49-4.77.18-6.95-2.3-3.86-6.21-4.4-10.08-4.4-1.23,0-2.47.06-3.64.08l-11.19.18c-.7.01-1.4.44-1.39,1.25l.1,17.23c.02,2.66-.07,5.1-.29,7.78-.07.88.7,1.68,1.67,1.69l8.04.14h.01c.33,0,1.02-.24,1.21-.46.15-.18.27-.82.24-1.09l-.92-10.05c1.37,1.4,2.25,2.65,3.22,4.1l5.11,7.57,10.9-.02c.33,0,1-.28.96-.52-.02-.18-.17-.79-.33-.97ZM80.27,76.15l-5.36.1c-.56,0-.86-1.7-.37-2.08,1.03-.15,2.18-.23,3.33-.23.74,0,1.46.03,2.16.1.78.07.84,2.1.24,2.11Z"/>
    <path d="M62.48,75.05c-.01.48-.81,1.29-1.25,1.29l-6.35-.03.46,4.46c.39,3.9.89,7.36,1.04,11.65l-11.06.06.74-16.1-7.87-.35-.29-9.46c-.02-.66.57-1.15,1.17-1.18l7.2-.31c4.47-.19,8.73-.41,13.2-.45.14,0,.29-.01.45-.01.88,0,2,.07,2.45.69.22,3.44.19,6.36.11,9.74Z"/>
    <path d="M36.98,89.61c-1.47,2.49-4.59,3.59-7.56,3.68-.8.02-1.59.03-2.36.03-4.37,0-8.47-.37-12.72-1.03-2.71-.42-5.3-1.78-6.48-4.33-1.04-2.25-1.1-4.78-.42-7.3.28,0,.56-.01.84-.01,2.93.01,5.78.35,8.59,1.04,2.94.72.23,3.83,3.04,4.74,1.12.36,2.42.69,3.66.69.79,0,1.55-.13,2.22-.47,1.43-.71,1.16-2.54.74-3.8-.43-1.29-1.66-2.03-3.21-2.32-2-.37-3.87-.96-5.76-1.64l-5.72-2.08c-3.24-1.17-2.18-7.42-1.45-9,1.31-2.83,6.11-3.62,10.84-3.62,3.55,0,7.05.45,9,.8,4.27.79,5.35,5.66,4.94,9.06l-7.52.58h-.15c-1,0-1.69-.81-1.65-1.86.05-.92-.65-1.33-1.39-1.75-.74-.43-1.58-.63-2.4-.63-1.43,0-2.82.61-3.61,1.72-.26.37-.32,1.41-.09,1.67.22.26.73.56,1.2.67,5.12,1.26,10.03,2.53,15.01,4.15,1.52.5,2.34,1.73,2.65,3.25.5,2.52,1.15,5.4-.24,7.76Z"/>
    <path d="M46.39,32.8c-.01,3.16,1.91,8.12-1.86,8.12h-.11l-13.13-.33.43,15.83c.02.64-.77,2.26-1.4,2.26h-.01l-13.49-.03h-.18c-1.31,0-2.58.03-3.84.03-1.58,0-3.15-.06-4.8-.32-.5-.39-.49-1.55-.48-2.28l.38-27.82.09-17.87c.01-1.24,1.42-2.01,2.69-2.03l45.69-.66c.43,7.41-.64,11.89.44,19.06l-25.29.17-.06,4.67,10.79.09c1.35.02,3.1,0,4.14,1.11Z"/>
    <path d="M104.77,47.69l-5.33-27.39c-.82-4.19-1.54-7.99-2.7-12.14-.92-.3-1.77-.36-2.66-.36-.53,0-1.08.02-1.66.02h-.03l-24.76-.03c-1.21,0-2.05.56-2.3,1.69l-2.16,9.71-9.17,38.64c1.63.75,3.18.84,4.83.84h.52l11.38-.09c1.14-.01,1.5-.66,1.74-1.62,1.62-6.5,3.54-11.17,4.58-17.66l7.14.11c.99,3.1,2,5.87,2.79,8.96l2.56,10,13.1.46c.26.01.51.02.76.02,1.11,0,2.12-.13,3.28-.74l-1.91-10.42ZM78.81,31.08l1.83-4.96,2.53,4.96h-4.36Z"/>
    <path d="M155.91,16.51l-.03,10.5-.04,4.17-2.4.34c-1.07.15-2.44.19-3.94.19-1.71,0-3.59-.05-5.39-.05s-3.51.05-4.91.26l.64,20.29.21,6.64-17.01.05c-.29,0-1.08-.27-1.18-.53-.09-.27-.09-.79-.08-1.23l.67-25.93-13.91.05h-1.43s-.51-8.9-.51-8.9c-.29-5.09-.46-9.91-.34-15.32l27.65.17,21.86.06c.59,3.24.15,6.1.14,9.24Z"/>
  </g>
</svg>